<svg fill="none" height="32" viewBox="0 0 32 32" width="32" xmlns="http://www.w3.org/2000/svg"><path clip-rule="evenodd" d="m31 32v-1-28-1h-1-28-1v1 7.7947 1.0498 16.1173 1.0498 1.9884 1h1 28zm-29-2.9884v1.9884h28v-4.6455c-.1738.2533-.3738.5045-.5996.7526-1.2709 1.4259-3.0408 2.1491-5.2591 2.1491-1.8255 0-3.4609-.5907-4.8599-1.7571-1.4663-1.2238-2.21-3.1688-2.21-5.7816 0-2.4217.6554-4.3318 1.9474-5.6784 1.2961-1.3466 2.9808-2.0297 5.0091-2.0297 1.1837 0 2.2729.227 3.2361.6733 1.0093.467 1.8517 1.2098 2.4945 2.1969.0848.1273.1653.2577.2415.3912v-14.2708h-28v7.7947h.05083 8.53277.0073v.001h.0085c2.3055.0336 3.9921.7559 5.0198 2.1531.6221.8651.9373 1.8991.9373 3.0738 0 1.2293-.332 2.2528-.9888 3.0433-.041.0494-.0841.0976-.1282.1459.3236.2751.6032.5942.8343.9532.5297.8178.7976 1.8046.7976 2.931 0 1.1516-.2974 2.2046-.8711 3.1126-.3731.6184-.848 1.1432-1.4029 1.559-.6389.4892-1.3944.8261-2.2467 1.0036-.7713.1595-1.6109.2404-2.4946.2404h-8.00527zm22.0279-15.0022h-3.4574-1.3562v-.7208-1.7731-.7208h1.3562 6.9304 1.3562v.7208 1.7731.7208h-1.3562zm-9.263-.4485c-.8197-1.116-2.2131-1.6881-4.1813-1.7164h-8.53277v16.1173h8.00417c.8197 0 1.5794-.0735 2.2803-.2194.7009-.146 1.3073-.4157 1.8222-.8094.4581-.3422.8385-.7653 1.1422-1.2682.4792-.7579.7198-1.6145.7198-2.5698 0-.9259-.2101-1.7122-.6294-2.361-.4182-.6487-1.0393-1.1222-1.8631-1.4214.5422-.2771.952-.5837 1.2315-.9185.4971-.5984.7461-1.3879.7461-2.3726 0-.9542-.2459-1.7751-.7397-2.4606zm-4.83808 4.6358h-4.65729v-3.5535h4.24747c.7713 0 1.4071.084 1.9052.2509.5779.2404.8669.7369.8669 1.4875 0 .6782-.2196 1.1506-.6557 1.4162-.4372.2666-1.0057.3989-1.70658.3989zm-.00315 6.9642h-4.65414v-4.2967h4.70773c.69254.0073 1.22944.0987 1.61194.2729.6852.3129 1.0288.8892 1.0288 1.728 0 .9899-.3541 1.6618-1.0613 2.0114-.3888.19-.9342.2844-1.63303.2844zm-.40773-9.4679h-3.19558v1.4529h3.60541c.50333 0 .89323-.0819 1.16013-.2446.1261-.0767.1524-.3244.1524-.5197 0-.3811-.0978-.4619-.1892-.5039-.3846-.1228-.8995-.1847-1.53316-.1847zm.46027 6.222h-3.65585v2.1972h3.60331c.70193 0 1.03503-.1113 1.16643-.1753l.0005-.0003c.1547-.0767.4755-.2359.4755-1.0705 0-.5385-.2049-.6771-.413-.7726-.1397-.0641-.4791-.1711-1.17689-.1785zm16.85819-6.2419c-.8329-.3855-1.7678-.5777-2.8065-.5777-1.7468 0-3.1689.5701-4.2644 1.7114-1.0945 1.1392-1.6417 2.7768-1.6417 4.9118 0 2.2805.6071 3.9246 1.8192 4.9368 1.2131 1.011 2.6132 1.5159 4.2003 1.5159 1.9221 0 3.4168-.5994 4.486-1.7983.6869-.7547 1.0724-1.4964 1.1564-2.2284h-3.1835c-.1839.3627-.3992.644-.6418.8482-.4422.3779-1.0199.5657-1.7299.5657-.6701 0-1.2426-.1542-1.7194-.4637-.7836-.4973-1.1985-1.365-1.2478-2.6019h8.6852c.0158-1.0653-.0199-1.8809-.1029-2.4467-.1439-.9665-.46-1.8157-.9495-2.5487-.542-.8318-1.2289-1.44-2.0597-1.8244zm-5.4965 4.6935c.1124-.8036.3897-1.44.8298-1.908.4411-.4692 1.0608-.7048 1.8612-.7048.7363 0 1.3529.2215 1.8497.6646.4978.442.773 1.0925.8308 1.9482zm1.526-1.087c.0186-.0225.0373-.0438.0579-.0652.0862-.0923.353-.3757 1.1082-.3757.48 0 .8602.1314 1.1627.4007.0147.013.0284.026.0431.0402zm2.8361 4.2992h-3.1552c.1523.3215.3518.4876.523.5973.3067.1988.687.2965 1.1596.2965.4653 0 .8119-.1043 1.0693-.3236.1323-.1108.2584-.2824.3739-.5104zm2.0857-11.7125v1.0715h-7.5v-1.0715z" fill="#fff" fill-rule="evenodd"/></svg>