<svg width="32" height="32" viewBox="0 0 32 32" fill="none" xmlns="http://www.w3.org/2000/svg">
<path fill-rule="evenodd" clip-rule="evenodd" d="M30 16C30 23.732 23.732 30 16 30C8.26801 30 2 23.732 2 16C2 8.26801 8.26801 2 16 2C23.732 2 30 8.26801 30 16ZM31 16C31 24.2843 24.2843 31 16 31C7.71573 31 1 24.2843 1 16C1 7.71573 7.71573 1 16 1C24.2843 1 31 7.71573 31 16ZM16.0001 11.4426C16.9424 11.4426 17.7062 10.6787 17.7062 9.73642C17.7062 8.79414 16.9424 8.03027 16.0001 8.03027C15.0578 8.03027 14.2939 8.79414 14.2939 9.73642C14.2939 10.6787 15.0578 11.4426 16.0001 11.4426ZM16.0001 12.4426C17.4947 12.4426 18.7062 11.231 18.7062 9.73642C18.7062 8.24186 17.4947 7.03027 16.0001 7.03027C14.5055 7.03027 13.2939 8.24186 13.2939 9.73642C13.2939 11.231 14.5055 12.4426 16.0001 12.4426ZM13.6961 13.7466H14.1961H17.8043H18.3043V14.2466V24.4699V24.9699H17.8043H14.1961H13.6961V24.4699V14.2466V13.7466ZM14.6961 14.7466V23.9699H17.3043V14.7466H14.6961Z" fill="white"/>
</svg>
