<svg fill="none" height="33" viewBox="0 0 32 33" width="32" xmlns="http://www.w3.org/2000/svg" xmlns:xlink="http://www.w3.org/1999/xlink"><clipPath id="a"><path d="m0 .725342h32v32h-32z"/></clipPath><g clip-path="url(#a)"><path clip-rule="evenodd" d="m7.75 5.22485c0 1.38072-1.11929 2.5-2.5 2.5s-2.5-1.11928-2.5-2.5c0-1.38071 1.11929-2.5 2.5-2.5s2.5 1.11929 2.5 2.5zm2 0c0 2.48528-2.01472 4.5-4.5 4.5s-4.5-2.01472-4.5-4.5 2.01472-4.499996 4.5-4.499996 4.5 2.014716 4.5 4.499996zm10.8964 9.04085c-.8584.5246-1.3964 1.3421-1.3964 2.4592h-2v-3h-4v15.0011h4v-7c0-1.2714.4867-2.2984 1.2731-2.9974.7681-.6827 1.7638-1.0026 2.7269-1.0026s1.9588.3199 2.7269 1.0026c.7864.699 1.2731 1.726 1.2731 2.9974v7h4v-8.0008c0-2.2909-.6828-3.9268-1.6343-5.0369-.9586-1.1184-2.2401-1.762-3.5301-1.977-1.3014-.2169-2.5504.0113-3.4392.5544zm8.4879.121c1.2985 1.515 2.1157 3.6292 2.1157 6.3385v9.0008 1h-1-6-1v-1-8c0-.7286-.2633-1.2016-.6019-1.5026-.3569-.3173-.8612-.4974-1.3981-.4974s-1.0412.1801-1.3981.4974c-.3386.301-.6019.774-.6019 1.5026v8 1h-1-6-1v-1-17.0011-1h1 6 1v1 .0696c.1144-.0828.2323-.1613.3536-.2354 1.3612-.8319 3.1122-1.1037 4.8108-.8206 1.71.2851 3.4285 1.1416 4.7199 2.6482zm-27.8843-2.6618h1 6 1v1 17 1h-1-6-1v-1-17zm2 2v15h4v-15z" fill="#2d2828" fill-rule="evenodd"/></g></svg>