<svg width="33" height="32" viewBox="0 0 33 32" fill="none" xmlns="http://www.w3.org/2000/svg">
<path fill-rule="evenodd" clip-rule="evenodd" d="M9.5 4.99731C9.5 6.93031 7.933 8.49731 6 8.49731C4.067 8.49731 2.5 6.93031 2.5 4.99731C2.5 3.06432 4.067 1.49731 6 1.49731C7.933 1.49731 9.5 3.06432 9.5 4.99731ZM10.5 4.99731C10.5 7.4826 8.48528 9.49731 6 9.49731C3.51472 9.49731 1.5 7.4826 1.5 4.99731C1.5 2.51203 3.51472 0.497314 6 0.497314C8.48528 0.497314 10.5 2.51203 10.5 4.99731ZM21.1357 13.6115C20.144 14.2175 19.5 15.1888 19.5 16.4974H18.5V12.9973H13.5V28.9985H18.5V21.4985C18.5 20.3628 18.9309 19.4743 19.6053 18.8748C20.2706 18.2834 21.1435 17.9985 22 17.9985C22.8565 17.9985 23.7294 18.2834 24.3947 18.8748C25.0691 19.4743 25.5 20.3628 25.5 21.4985V28.9985H30.5V20.4976C30.5 18.1022 29.7836 16.3467 28.7454 15.1354C27.7036 13.9199 26.3128 13.2231 24.9178 12.9906C23.5171 12.7571 22.1426 12.9962 21.1357 13.6115ZM29.5046 14.4846C30.7164 15.8984 31.5 17.893 31.5 20.4976V29.4985V29.9985H31H25H24.5V29.4985V21.4985C24.5 20.6341 24.1809 20.0226 23.7303 19.6222C23.2706 19.2135 22.6435 18.9985 22 18.9985C21.3565 18.9985 20.7294 19.2135 20.2697 19.6222C19.8191 20.0226 19.5 20.6341 19.5 21.4985V29.4985V29.9985H19H13H12.5V29.4985V12.4973V11.9973H13H19H19.5V12.4973V13.7016C19.8146 13.3321 20.1918 13.0164 20.6143 12.7582C21.8574 11.9985 23.4829 11.7376 25.0822 12.0042C26.6872 12.2717 28.2964 13.075 29.5046 14.4846ZM2.5 11.9973H3H9H9.5V12.4973V29.4973V29.9973H9H3H2.5V29.4973V12.4973V11.9973ZM3.5 12.9973V28.9973H8.5V12.9973H3.5Z" fill="white"/>
</svg>
